<svg width="135" height="23" viewBox="0 0 135 23" fill="none" xmlns="http://www.w3.org/2000/svg">
<path d="M119.495 13.7793C119.495 8.37568 120.965 4.59311 127.248 4.59311C133.53 4.59311 135 8.37568 135 13.7793C135 19.183 133.53 22.9656 127.248 22.9656C121.099 22.9656 119.495 19.183 119.495 13.7793ZM131.124 13.7793C131.124 9.99678 130.589 7.83531 127.381 7.83531C124.173 7.83531 123.639 9.99678 123.639 13.7793C123.639 17.5619 124.173 19.7234 127.381 19.7234C130.589 19.7234 131.124 17.4268 131.124 13.7793ZM12.1634 22.2901C12.297 22.4252 12.4307 22.5603 12.5644 22.5603H14.0347C14.302 22.5603 14.5693 22.2901 14.5693 22.0199V5.40366C14.5693 5.13348 14.302 4.8633 14.0347 4.8633H11.2277C10.9604 4.8633 10.6931 5.13348 10.6931 5.40366V18.5075C9.4901 19.183 8.0198 19.5883 6.68317 19.5883C4.81188 19.5883 3.87624 18.7777 3.87624 17.0215V5.40366C3.87624 5.13348 3.60891 4.8633 3.34158 4.8633H0.534653C0.267327 4.8633 0 5.13348 0 5.40366V17.2917C0 20.669 1.60396 22.9656 6.01485 22.9656C8.0198 22.9656 10.0248 22.2901 11.6287 21.0743L12.1634 22.2901ZM44.7772 10.1319C44.7772 6.75458 43.1733 4.45802 39.0297 4.45802C37.0248 4.45802 35.1535 5.13348 33.4158 6.21421C32.7475 5.13348 31.2772 4.45802 29.005 4.45802C27.1337 4.45802 25.2624 5.13348 23.7921 6.34931L23.2574 5.13348C23.1238 4.99839 22.9901 4.8633 22.8564 4.8633H21.3861C21.1188 4.8633 20.8515 5.13348 20.8515 5.40366V22.0199C20.8515 22.2901 21.1188 22.5603 21.3861 22.5603H24.3267C24.5941 22.5603 24.8614 22.2901 24.8614 22.0199V8.91605C25.9307 8.24059 27.2673 7.83531 28.4703 7.83531C30.0743 7.83531 31.0099 8.37568 31.0099 10.1319V22.0199C31.0099 22.2901 31.2772 22.5603 31.5446 22.5603H34.4851C34.7525 22.5603 35.0198 22.2901 35.0198 22.0199V8.91605C36.0891 8.24059 37.4257 7.83531 38.6287 7.83531C40.099 7.83531 41.1683 8.37568 41.1683 10.1319V22.0199C41.1683 22.2901 41.4356 22.5603 41.703 22.5603H44.6436C44.9109 22.5603 45.1782 22.2901 45.1782 22.0199L44.7772 10.1319ZM53.7327 21.0743C55.3366 22.2901 57.3416 22.9656 59.3465 22.9656C64.4257 22.9656 66.297 19.4532 66.297 13.7793C66.297 8.1055 64.4257 4.59311 59.3465 4.59311C57.7426 4.59311 56.005 5.13348 54.6683 5.94403V0.540366C54.6683 0.270183 54.401 0 54.1337 0H51.1931C50.9257 0 50.7921 0.270183 50.7921 0.540366V22.0199C50.7921 22.2901 51.0594 22.5603 51.3267 22.5603H52.797C52.9307 22.5603 53.198 22.4252 53.198 22.2901L53.7327 21.0743ZM58.4109 19.5883C57.0743 19.5883 55.7376 19.183 54.6683 18.5075V8.91605C55.8713 8.24059 57.0743 7.83531 58.4109 7.83531C61.8861 7.83531 62.2871 10.5371 62.2871 13.7793C62.2871 17.0215 61.8861 19.5883 58.4109 19.5883ZM80.7327 7.9704C80.3317 7.9704 79.797 7.83531 79.396 7.83531C77.7921 7.83531 76.3218 8.1055 74.9851 8.91605V22.0199C74.9851 22.2901 74.7178 22.5603 74.4505 22.5603H71.5099C71.2426 22.5603 70.9753 22.2901 70.9753 22.0199V5.40366C70.9753 5.13348 71.2426 4.8633 71.5099 4.8633H72.9802C73.1139 4.8633 73.3812 4.99839 73.3812 5.13348L73.9158 6.34931C75.5198 5.13348 77.3911 4.45802 79.396 4.45802C79.797 4.45802 80.3317 4.45802 80.7327 4.59311C81 4.59311 81.2673 4.99839 81.2673 5.26857V7.43004C81.2673 7.70022 81 7.9704 80.7327 7.9704ZM90.7574 14.4548C89.0198 14.725 87.9505 15.2654 87.9505 17.1566C87.9505 18.5075 88.4852 19.7234 90.6238 19.7234C91.9604 19.7234 93.297 19.3181 94.3663 18.5075V13.9144L90.7574 14.4548ZM95.4356 21.0743C93.9653 22.2901 92.0941 22.9656 90.2228 22.9656C85.6782 22.9656 84.2079 20.1286 84.2079 17.2917C84.2079 13.5092 86.6139 11.8881 90.6238 11.4828L94.5 11.2126V10.4021C94.5 8.64586 93.698 7.83531 91.0247 7.83531C89.4208 7.83531 87.8168 8.1055 86.2129 8.64586H86.0792C85.8119 8.64586 85.5446 8.37568 85.5446 8.1055V5.80894C85.5446 5.53876 85.6782 5.40366 85.9455 5.26857C87.6832 4.72821 89.5545 4.32293 91.2921 4.32293C97.0396 4.32293 98.3762 6.88967 98.3762 10.5371V21.7497C98.3762 22.0199 98.1089 22.2901 97.8416 22.2901H96.3713C96.2376 22.2901 95.9703 22.155 95.9703 22.0199L95.4356 21.0743ZM115.218 18.9128H115.351C115.619 18.9128 115.886 19.183 115.886 19.4532V21.7497C115.886 22.0199 115.752 22.155 115.619 22.2901C114.149 22.8305 112.678 23.1007 111.074 22.9656C104.926 22.9656 103.054 19.183 103.054 13.7793C103.054 8.37568 104.926 4.59311 111.074 4.59311C112.545 4.59311 114.149 4.72821 115.485 5.26857C115.619 5.40366 115.752 5.53876 115.752 5.80894V8.1055C115.752 8.37568 115.485 8.64586 115.218 8.64586H115.084C113.881 8.24059 112.545 8.1055 111.208 8.1055C107.866 8.1055 106.797 10.4021 106.797 13.9144C106.797 17.4268 107.733 19.7234 111.208 19.7234C112.678 19.4532 114.015 19.3181 115.218 18.9128Z" fill="#313131"/>
</svg>
