<svg width="156" height="33" viewBox="0 0 156 33" fill="none" xmlns="http://www.w3.org/2000/svg">
<path fill-rule="evenodd" clip-rule="evenodd" d="M124.794 22.2089C125.023 21.5406 125.109 20.6979 125.109 19.303C125.109 17.9078 125.023 17.0942 124.794 16.3968C124.336 15.0019 123.277 14.3042 121.76 14.3042C120.242 14.3042 119.211 15.0307 118.753 16.3968C118.524 17.1524 118.438 18.0534 118.438 19.303C118.438 20.5817 118.524 21.4824 118.753 22.2089C119.211 23.575 120.242 24.3304 121.76 24.3304C123.277 24.3304 124.336 23.6038 124.794 22.2089ZM125.395 26.2776C125.224 26.2776 125.109 26.1614 125.109 25.987V24.6504H125.081C124.422 25.7543 123.248 26.5971 121.187 26.5971C118.811 26.5971 117.15 25.4637 116.463 23.2549C116.091 22.151 115.976 21.0467 115.976 19.303C115.976 17.5884 116.091 16.4838 116.463 15.3796C117.15 13.1708 118.811 12.0374 121.187 12.0374C123.248 12.0374 124.422 12.8513 125.081 13.9553H125.109V6.80652C125.109 6.6321 125.224 6.51562 125.395 6.51562H127.228C127.4 6.51562 127.514 6.6321 127.514 6.80652V25.987C127.514 26.1614 127.4 26.2776 127.228 26.2776H125.395ZM139.311 21.7732V20.2327C139.311 20.1165 139.254 20.0583 139.139 20.0583H136.391C134.014 20.0583 132.983 20.756 132.983 22.325C132.983 23.7493 134.014 24.505 135.847 24.505C137.994 24.505 139.311 23.4878 139.311 21.7732ZM139.655 26.2775C139.483 26.2775 139.368 26.1614 139.368 25.9869V24.7665H139.34C138.71 25.8125 137.364 26.5973 135.274 26.5973C132.669 26.5973 130.664 25.2315 130.664 22.4124C130.664 19.4773 132.669 18.1113 136.018 18.1113H139.139C139.254 18.1113 139.311 18.0533 139.311 17.9369V16.9197C139.311 15.0018 138.566 14.1879 136.018 14.1879C134.472 14.1879 133.499 14.5947 132.697 15.1762C132.554 15.2924 132.382 15.2924 132.296 15.1468L131.523 13.8102C131.438 13.6358 131.466 13.5196 131.581 13.4034C132.611 12.5898 134.215 12.0376 136.247 12.0376C140.141 12.0376 141.63 13.3452 141.63 16.7747V25.9869C141.63 26.1614 141.516 26.2775 141.344 26.2775H139.655ZM145.353 31.5086C145.181 31.5086 145.067 31.3924 145.067 31.218V29.5325C145.067 29.3581 145.181 29.2419 145.353 29.2419H145.869C146.985 29.2419 147.586 28.748 148.188 27.1493L148.646 25.8709L143.607 12.6476C143.549 12.4734 143.635 12.357 143.835 12.357H145.84C146.012 12.357 146.126 12.4443 146.183 12.6476L149.791 22.7032H149.848L153.313 12.6476C153.37 12.4443 153.484 12.357 153.656 12.357H155.603C155.775 12.357 155.889 12.4734 155.832 12.6476L150.421 27.3531C149.218 30.6367 148.159 31.5086 146.098 31.5086H145.353Z" fill="#313131"/>
<path fill-rule="evenodd" clip-rule="evenodd" d="M75.8338 12.4152C75.8338 10.2647 74.4309 8.92776 72.0259 8.92776H67.674C67.5595 8.92776 67.5022 8.98599 67.5022 9.10219V15.7283C67.5022 15.8444 67.5595 15.9024 67.674 15.9024H72.0259C74.4309 15.9024 75.8338 14.5658 75.8338 12.4152ZM65.2403 26.2774C65.0687 26.2774 64.954 26.1612 64.954 25.9868V6.80633C64.954 6.63218 65.0687 6.51571 65.2403 6.51571H72.1691C75.9196 6.51571 78.3533 8.84068 78.3533 12.4152C78.3533 15.9898 75.9196 18.3145 72.1691 18.3145H67.674C67.5595 18.3145 67.5022 18.3727 67.5022 18.4889V25.9868C67.5022 26.1612 67.3877 26.2774 67.2158 26.2774H65.2403ZM84.281 26.4229C81.8757 26.4229 80.931 25.2605 80.931 22.7611V6.80652C80.931 6.6321 81.0455 6.51562 81.2173 6.51562H83.0497C83.2216 6.51562 83.336 6.6321 83.336 6.80652V22.6157C83.336 23.7782 83.7655 24.1559 84.7103 24.1559H85.2545C85.426 24.1559 85.5405 24.2721 85.5405 24.4465V26.132C85.5405 26.3065 85.426 26.4229 85.2545 26.4229H84.281ZM96.0203 21.7731V20.2326C96.0203 20.1165 95.9629 20.0582 95.8485 20.0582H93.1C90.7234 20.0582 89.6926 20.7559 89.6926 22.325C89.6926 23.7492 90.7234 24.5049 92.5558 24.5049C94.7032 24.5049 96.0203 23.4877 96.0203 21.7731ZM96.3637 26.2775C96.1919 26.2775 96.0774 26.1613 96.0774 25.9868V24.7664H96.0487C95.419 25.8124 94.0732 26.5972 91.9832 26.5972C89.3779 26.5972 87.3736 25.2314 87.3736 22.4123C87.3736 19.4772 89.3779 18.1112 92.7276 18.1112H95.8485C95.9629 18.1112 96.0203 18.0533 96.0203 17.9368V16.9196C96.0203 15.0017 95.2755 14.1878 92.7276 14.1878C91.1816 14.1878 90.2081 14.5946 89.4063 15.1762C89.2634 15.2923 89.0916 15.2923 89.0055 15.1468L88.2323 13.8101C88.1468 13.6357 88.1752 13.5195 88.2897 13.4033C89.3205 12.5897 90.9239 12.0376 92.9566 12.0376C96.8506 12.0376 98.3393 13.3451 98.3393 16.7746V25.9868C98.3393 26.1613 98.2248 26.2775 98.0529 26.2775H96.3637ZM110.966 26.2775C110.794 26.2775 110.68 26.1613 110.68 25.9869V17.8495C110.68 15.6119 109.678 14.3041 107.616 14.3041C105.755 14.3041 104.467 15.6413 104.467 17.7045V25.9869C104.467 26.1613 104.353 26.2775 104.181 26.2775H102.348C102.176 26.2775 102.062 26.1613 102.062 25.9869V12.6477C102.062 12.4735 102.176 12.3571 102.348 12.3571H104.181C104.353 12.3571 104.467 12.4735 104.467 12.6477V13.9264H104.495C105.154 12.8512 106.471 12.0373 108.332 12.0373C111.31 12.0373 113.085 14.1008 113.085 17.2685V25.9869C113.085 26.1613 112.971 26.2775 112.799 26.2775H110.966Z" fill="#313131"/>
<path fill-rule="evenodd" clip-rule="evenodd" d="M41.061 13.4402C40.4567 10.6543 38.9688 8.01988 36.5758 5.98192C30.7287 1.00169 22.4361 1.9867 17.7594 7.64412L17.7591 7.6444L17.7588 7.64468L0.772038 28.1931C-0.330071 29.5264 -0.244284 31.0095 0.978581 32.0511C2.20145 33.0927 3.65544 32.9207 4.75755 31.5877L14.9287 19.2837L21.6979 11.0955L21.6993 11.0966C21.7146 11.0775 21.729 11.0578 21.7446 11.039C21.8372 10.9269 21.9318 10.8188 22.0277 10.7131C22.0432 10.6962 22.0596 10.6798 22.0752 10.6627C25.1793 7.3083 30.0626 7.24757 33.2709 9.97991C33.2709 9.97991 33.29 9.99211 33.326 10.0124C37.0944 13.2677 36.8941 18.4809 34.2451 21.6852C34.1528 21.797 33.9304 22.0443 33.9145 22.0612C30.8106 25.4156 26.0011 25.4877 22.6639 22.7115C21.9673 22.1098 21.4064 21.4412 20.9717 20.7304C20.4504 19.8782 19.262 19.7923 18.6279 20.5615L16.4494 23.2035C17.2023 24.4996 18.1891 25.699 19.4139 26.7422C25.261 31.7222 33.5536 30.7372 38.2303 25.08C38.2303 25.08 41.9683 20.6802 41.061 13.4402Z" fill="#313131"/>
<path fill-rule="evenodd" clip-rule="evenodd" d="M41.0696 13.442L51.241 1.13823C52.3432 -0.195079 53.7969 -0.366734 55.0197 0.674568C56.2426 1.71615 56.3287 3.19948 55.2266 4.53252L38.2305 25.0796C33.5538 30.737 25.2609 31.7217 19.4138 26.7418C18.1893 25.6988 17.2024 24.4992 16.4492 23.2033L18.6278 20.5611C19.2621 19.7921 20.4506 19.8781 20.9719 20.7302C21.4065 21.4407 21.9759 22.1115 22.6726 22.7133C25.9841 25.4786 30.8053 25.4179 33.9095 22.0636C33.9136 22.0591 34.172 21.7693 34.24 21.6873L41.0696 13.442Z" fill="#313131"/>
</svg>
