<svg width="120" height="26" viewBox="0 0 120 26" fill="none" xmlns="http://www.w3.org/2000/svg">
<path d="M11.3472 8.69398C11.193 8.53981 11.008 8.41647 10.823 8.32397C11.5322 7.4606 11.9022 6.35054 11.9022 5.20966C11.9022 3.69876 11.2239 2.28036 10.0521 1.32448C9.12709 0.553611 7.95537 0.183594 6.41363 0.183594H0V5.20966V7.42976V10.2049V13.0725V18.7461H7.21533C8.97291 18.7461 10.2988 18.3453 11.3164 17.4819C12.6422 16.4027 13.4131 14.7993 13.4131 13.1034C13.444 11.3766 12.6731 9.7732 11.3472 8.69398ZM3.20681 3.17457H5.82777C7.30784 3.17457 7.80119 3.48291 8.0787 3.82209C8.41789 4.19211 8.63373 4.68547 8.63373 5.20966C8.63373 5.73385 8.44872 6.19637 8.0787 6.59722C7.77036 6.9364 7.30784 7.24475 5.82777 7.24475H3.20681V3.17457ZM9.4046 14.8918C8.97291 15.3235 8.32538 15.7243 6.62947 15.7243H3.20681V10.2666H6.66031C8.35622 10.2666 8.97291 10.6674 9.4046 11.0991C9.89795 11.6233 10.1755 12.3017 10.1755 12.98C10.1755 13.6892 9.89795 14.3676 9.4046 14.8918Z" fill="#313131"/>
<path d="M26.8879 6.07446H23.8661V18.7475H26.8879V6.07446Z" fill="#313131"/>
<path d="M25.3458 0.152344C24.2974 0.152344 23.4648 0.984882 23.4648 2.0641C23.4648 3.11248 24.2974 3.94502 25.3458 3.94502C26.425 3.94502 27.2575 3.11248 27.2575 2.0641C27.2575 1.01572 26.3941 0.152344 25.3458 0.152344Z" fill="#313131"/>
<path d="M38.266 6.90685C37.2484 6.19765 36.0767 5.82764 34.7508 5.82764C33.6099 5.82764 32.5307 6.10515 31.6365 6.62934C29.6323 7.80106 28.3989 10.0212 28.3989 12.3954C28.3989 14.8005 29.6014 16.959 31.6365 18.1307C32.5307 18.6549 33.7024 18.9632 34.8125 18.9632C36.0767 18.9632 37.2176 18.6241 38.1735 17.9457V18.0382C38.1735 19.4258 37.9885 20.3508 37.5568 20.9983C37.0018 21.8309 36.0767 22.2626 34.8433 22.2626C32.9007 22.2626 31.8524 21.2142 31.0815 20.2275L30.8965 19.9808L28.7072 22.0159L28.8306 22.2009C29.6939 23.5576 31.8215 25.1302 34.9667 25.1302C37.4026 25.1302 39.4069 23.9893 40.4553 21.985C40.9794 20.9675 41.1953 19.7033 41.1953 17.884V6.07432H38.266V6.90685ZM38.1735 14.5847C37.4334 15.5406 36.2926 16.1264 35.1208 16.1264C33.0241 16.1264 31.3898 14.4922 31.3898 12.4263C31.3898 10.2987 32.9316 8.7261 34.9975 8.7261C36.2001 8.7261 37.4026 9.31196 38.1735 10.2678V14.5847Z" fill="#313131"/>
<path d="M49.1819 5.82594C47.7327 5.82594 46.6226 6.35013 45.9134 6.84348V0.152344H42.8916V18.7457H45.9134V10.2661C46.5301 9.55694 47.5785 8.7244 49.1202 8.7244C50.0144 8.7244 50.8778 9.12526 51.402 9.80362C51.7412 10.2353 52.0495 10.8212 52.0495 12.4246V18.7457H55.0713V12.5479C55.0713 10.5128 54.7013 9.18692 53.8379 8.07687C52.6971 6.65848 51.032 5.82594 49.1819 5.82594Z" fill="#313131"/>
<path d="M74.7743 6.62934C73.8801 6.10515 72.8009 5.82764 71.66 5.82764C70.3341 5.82764 69.1624 6.19765 68.1448 6.90685V6.10515H65.2155V24.9452H68.2373V17.9765C69.1932 18.6549 70.3341 18.9941 71.5983 18.9941C72.7084 18.9941 73.9109 18.6857 74.7743 18.1615C76.8094 16.959 78.0119 14.8314 78.0119 12.4263C78.0428 10.052 76.7785 7.8319 74.7743 6.62934ZM71.29 16.1264C70.1491 16.1264 69.0082 15.5406 68.2373 14.5847V10.237C69.0082 9.28113 70.1799 8.69527 71.4133 8.69527C73.4792 8.69527 75.021 10.2987 75.021 12.3954C75.021 14.4922 73.3867 16.1264 71.29 16.1264Z" fill="#313131"/>
<path d="M85.5049 5.82764C81.9281 5.82764 79.338 8.60277 79.338 12.4263C79.338 16.1881 82.1439 19.0249 85.8749 19.0249C89.0201 19.0249 90.6235 17.3598 91.1785 16.6506L91.3327 16.4348L89.3284 14.5539L89.1434 14.7697C88.465 15.5406 87.5092 16.3115 85.8749 16.3115C84.0557 16.3115 82.5448 14.9856 82.2673 13.228H91.5177L91.5485 12.9813C91.5794 12.7346 91.5794 12.5496 91.5794 12.4263C91.5794 8.66443 88.9584 5.82764 85.5049 5.82764ZM82.5756 10.5762C83.069 9.3428 84.2407 8.51026 85.5974 8.51026C86.8 8.51026 87.9717 9.37363 88.4034 10.5762H82.5756Z" fill="#313131"/>
<path d="M102.711 6.90685C101.693 6.19765 100.521 5.82764 99.1954 5.82764C98.0545 5.82764 96.9753 6.10515 96.0811 6.62934C94.0768 7.80106 92.8434 10.0212 92.8434 12.3954C92.8434 14.8005 94.046 16.959 96.0811 18.1307C96.9753 18.6549 98.147 18.9632 99.2571 18.9632C100.521 18.9632 101.724 18.5932 102.711 17.9149V18.7166H105.64V6.07432H102.711V6.90685ZM102.618 14.5847C101.878 15.5406 100.737 16.1264 99.5654 16.1264C97.4687 16.1264 95.8344 14.4922 95.8344 12.4263C95.8344 10.2987 97.3762 8.7261 99.4421 8.7261C100.645 8.7261 101.847 9.31196 102.618 10.2678V14.5847Z" fill="#313131"/>
<path d="M119.269 0H116.247V18.7475H119.269V0Z" fill="#313131"/>
<path d="M63.5198 15.9706C63.119 16.0939 62.4406 16.1556 62.0089 16.1556C61.2689 16.1556 60.5289 15.8781 60.1897 15.4772C59.8813 15.1072 59.8197 14.5213 59.8197 13.7813V8.78607H63.5198V6.07262H59.8197V0.152344H56.7979V13.5963C56.7979 15.2614 57.1679 16.4948 57.9387 17.3273C58.8946 18.4065 60.2513 18.9615 61.9164 18.9615C62.4406 18.9615 63.0265 18.8999 63.5198 18.8074V15.9706Z" fill="#313131"/>
<path d="M22.2626 5.95098C21.8618 5.85847 21.4301 5.82764 20.9984 5.82764C19.5492 5.82764 18.4391 6.35183 17.7299 6.84518V6.07432H14.7081V18.7474H17.7299V10.2678C18.3466 9.55864 19.395 8.7261 20.9367 8.7261C21.3993 8.7261 21.8618 8.84944 22.2935 9.03445L22.2626 5.95098Z" fill="#313131"/>
<path d="M114.89 5.95098C114.489 5.85847 114.058 5.82764 113.626 5.82764C112.177 5.82764 111.067 6.35183 110.358 6.84518V6.07432H107.336V18.7474H110.358V10.2678C110.974 9.55864 112.023 8.7261 113.564 8.7261C114.027 8.7261 114.489 8.84944 114.921 9.03445L114.89 5.95098Z" fill="#313131"/>
</svg>
