<svg width="149" height="21" viewBox="0 0 149 21" fill="none" xmlns="http://www.w3.org/2000/svg">
<path d="M60.7159 0H65.3955V19.6634H60.7159V0Z" fill="#313131"/>
<path d="M69.5717 8.40089H67.3124V5.37199H69.5717C69.5717 1.26651 71.0049 0 75.0008 0C75.7411 0 76.5127 0.0545851 77.2564 0.0823289V3.38731C76.8179 3.33047 76.4065 3.30464 75.9914 3.30464C74.918 3.30464 74.2566 3.44212 74.2566 4.73615V5.37199H77.0645V8.40089H74.2566V19.6634H69.5717V8.40089Z" fill="#313131"/>
<path d="M90.1777 14.9527C90.1777 15.6692 90.4788 16.1902 90.9488 16.5511C91.3873 16.883 92.0218 17.0479 92.6834 17.0479C93.5916 17.0479 94.8842 16.6604 94.8842 15.5322C94.8842 14.4325 93.4242 14.209 92.6014 14.0136C89.6528 13.2741 85.9641 13.1916 85.9641 9.33488C85.9641 5.89287 89.6797 4.95703 92.4912 4.95703C95.6285 4.95703 98.9057 5.86727 99.0697 9.58186H94.7472C94.7472 8.97838 94.528 8.59279 94.1401 8.34434C93.7563 8.09578 93.2319 7.98604 92.6522 7.98604C91.8848 7.98604 90.6434 8.06849 90.6434 9.06049C90.6434 10.408 93.7838 10.6586 95.9333 11.1243C98.8235 11.704 99.567 13.7978 99.567 14.9804C99.567 18.81 95.9332 20.0746 92.7106 20.0746C89.3238 20.0746 85.8545 18.9466 85.7136 14.9527H90.1777Z" fill="#313131"/>
<path d="M101.252 0H105.935V7.32442H105.99C106.707 5.86732 108.633 4.95708 110.341 4.95708C115.106 4.95708 115.49 8.42638 115.49 10.4937V19.6634H110.81V12.751C110.81 10.7952 111.03 8.8105 108.469 8.8105C106.707 8.8105 105.935 10.3002 105.935 11.8685V19.6634H101.252V0Z" fill="#313131"/>
<path d="M121.804 13.6607C121.886 15.615 123.017 16.9108 125.002 16.9108C126.126 16.9108 127.23 16.3826 127.67 15.3402H132.051C131.197 18.6453 128.139 20.0746 124.944 20.0746C120.292 20.0746 117.121 17.2672 117.121 12.475C117.121 8.09578 120.621 4.95703 124.834 4.95703C129.956 4.95703 132.517 8.81046 132.298 13.6607H121.804ZM127.615 11.0423C127.533 9.44472 126.405 8.12454 124.834 8.12454C123.182 8.12454 122.082 9.30905 121.804 11.0423H127.615Z" fill="#313131"/>
<path d="M134.21 5.37363H138.755V7.8763H138.81C139.499 6.0627 141.097 5.09766 143.106 5.09766C143.466 5.09766 143.85 5.12326 144.21 5.20547V9.47573C143.603 9.31085 143.052 9.19942 142.417 9.19942C140.107 9.19942 138.893 10.7968 138.893 12.5873V19.6651H134.21V5.37363Z" fill="#313131"/>
<path d="M79.2489 5.37196H83.9319V19.6634H79.2489V5.37196ZM83.9152 0.0737305H79.2454V3.38728H83.9152V0.0737305Z" fill="#313131"/>
<path d="M148.474 19.6551H143.805V16.3398H148.474V19.6551Z" fill="#313131"/>
<path d="M20.896 13.6607C20.9781 15.615 22.1095 16.9108 24.0913 16.9108C25.2223 16.9108 26.3228 16.3826 26.7619 15.3402H31.1395C30.2894 18.6453 27.2315 20.0746 24.0365 20.0746C19.384 20.0746 16.2166 17.2672 16.2166 12.475C16.2166 8.09578 19.7131 4.95703 23.9266 4.95703C29.0486 4.95703 31.6093 8.81046 31.3898 13.6607H20.896ZM26.7068 11.0423C26.6246 9.44472 25.4968 8.12454 23.9266 8.12454C22.274 8.12454 21.1736 9.30905 20.896 11.0423H26.7068Z" fill="#313131"/>
<path d="M42.3294 19.6634C42.1646 19.2212 42.1099 18.7794 42.0551 18.3125C40.8415 19.5811 39.0519 20.0746 37.348 20.0746C34.619 20.0746 32.473 18.6966 32.473 15.7518C32.473 11.097 37.5365 11.4592 40.7899 10.7951C41.5854 10.6309 42.0276 10.355 42.0276 9.47393C42.0276 8.40084 40.7318 7.98604 39.7684 7.98604C38.4759 7.98604 37.6498 8.5637 37.4267 9.77539H33.0489C33.131 7.9018 34.0123 6.68999 35.2807 5.94937C36.5491 5.233 38.1982 4.95703 39.8233 4.95703C43.2138 4.95703 46.4876 5.69934 46.4876 9.7481V19.6634H42.3294ZM39.11 17.1847C41.3385 17.1847 42.0824 15.9163 41.9728 12.9708C41.3112 13.3836 40.1009 13.466 39.0825 13.7426C38.0335 13.9896 37.1526 14.4325 37.1526 15.5596C37.1526 16.715 38.0611 17.1847 39.11 17.1847Z" fill="#313131"/>
<path d="M48.9598 5.37363H53.5057V7.8763H53.557C54.2463 6.0627 55.8439 5.09766 57.8529 5.09766C58.2127 5.09766 58.5968 5.12326 58.9565 5.20547V9.47573C58.3501 9.31085 57.7981 9.19942 57.1671 9.19942C54.8529 9.19942 53.6395 10.7968 53.6395 12.5873V19.6651H48.9598V5.37363Z" fill="#313131"/>
<path d="M0 0.090332H9.15093C12.8617 0.090332 16.3504 1.79296 16.3504 6.51114C16.3504 11.4504 13.5324 13.377 9.15093 13.377H5.19112V20.019H0V0.090332ZM5.19112 9.35495H8.36904C9.98833 9.35495 11.1593 8.68615 11.1593 6.87069C11.1593 5.00128 9.96039 4.25089 8.36904 4.25089H5.19112V9.35495Z" fill="#313131"/>
<path d="M148.407 19.7175H143.71V16.3828H148.407V19.7175Z" fill="#313131"/>
</svg>
